<?xml version="1.0" standalone="no"?>
<!DOCTYPE svg PUBLIC "-//W3C//DTD SVG 20010904//EN"
 "http://www.w3.org/TR/2001/REC-SVG-20010904/DTD/svg10.dtd">
<svg version="1.0" xmlns="http://www.w3.org/2000/svg"
 width="1080.000000pt" height="1080.000000pt" viewBox="0 0 1080.000000 1080.000000"
 preserveAspectRatio="xMidYMid meet">

<g transform="translate(0.000000,1080.000000) scale(0.100000,-0.100000)"
fill="#000000" stroke="none">
<path d="M920 5395 l0 -5115 4485 0 4485 0 0 5115 0 5115 -4485 0 -4485 0 0
-5115z m7340 370 l0 -845 -620 0 -620 0 0 495 0 495 420 0 420 0 0 350 0 350
200 0 200 0 0 -845z m-4315 633 c-3 -62 -8 -146 -11 -185 l-6 -73 -184 0 -184
0 0 185 0 185 196 0 195 0 -6 -112z m1525 -98 l0 -200 -470 0 -470 0 0 -340 0
-340 470 0 c459 0 470 0 470 -19 0 -22 26 -343 35 -428 l5 -53 -689 0 -690 0
-5 43 c-6 44 -67 1422 -66 1495 l0 42 705 0 705 0 0 -200z m-2032 145 c3 -2
-115 -303 -261 -667 -146 -365 -280 -699 -297 -744 -36 -97 -64 -127 -117
-126 -49 0 -231 27 -240 35 -7 7 484 1320 526 1407 31 65 65 92 129 101 46 7
252 2 260 -6z m-1068 -374 l38 -151 -42 -18 c-22 -10 -158 -70 -301 -132 -143
-63 -266 -118 -273 -123 -8 -7 -9 -14 -3 -20 5 -5 135 -37 288 -72 266 -59
278 -63 281 -86 4 -30 -23 -318 -31 -325 -5 -6 -325 90 -675 202 -239 77 -266
94 -282 183 -16 87 -12 180 10 229 18 40 27 47 137 99 245 116 808 372 811
368 2 -2 21 -71 42 -154z m6978 -197 c43 -18 66 -72 83 -192 15 -113 4 -159
-44 -196 -28 -22 -918 -418 -925 -412 -8 9 -62 320 -55 326 4 5 123 63 263
131 140 67 258 125 263 129 4 3 -115 44 -265 90 -150 45 -277 86 -281 90 -4 4
2 84 14 178 l22 170 446 -150 c245 -82 461 -156 479 -164z m-2468 -369 l0
-605 -630 0 -630 0 0 605 0 605 630 0 630 0 0 -605z m-2960 -60 l0 -535 -175
0 -175 0 0 520 c0 409 3 520 13 521 68 5 324 27 330 28 4 0 7 -240 7 -534z
m-415 -868 c27 -15 48 -37 63 -67 47 -91 12 -234 -68 -275 -44 -23 -137 -38
-187 -30 l-43 6 0 194 0 194 38 4 c67 8 156 -4 197 -26z m495 13 c0 -18 -7
-20 -80 -20 l-80 0 0 -70 0 -70 75 0 c68 0 75 -2 75 -20 0 -18 -7 -20 -75 -20
l-75 0 0 -75 0 -75 85 0 c78 0 85 -2 85 -20 0 -19 -7 -20 -110 -20 l-110 0 0
205 0 205 105 0 c98 0 105 -1 105 -20z m226 -90 c18 -58 42 -139 54 -180 l22
-74 59 182 c55 168 62 182 84 182 23 0 23 0 -27 -142 -28 -79 -60 -171 -71
-205 -19 -55 -24 -63 -47 -63 -24 0 -28 9 -88 198 -34 108 -62 201 -62 205 0
5 10 7 22 5 18 -2 27 -20 54 -108z m634 90 c0 -18 -7 -20 -80 -20 l-80 0 0
-70 0 -70 75 0 c68 0 75 -2 75 -20 0 -18 -7 -20 -75 -20 l-75 0 0 -75 0 -75
85 0 c78 0 85 -2 85 -20 0 -19 -7 -20 -110 -20 l-110 0 0 205 0 205 105 0 c98
0 105 -1 105 -20z m260 -165 l0 -185 85 0 c78 0 85 -2 85 -20 0 -19 -7 -20
-110 -20 l-110 0 0 205 0 205 25 0 25 0 0 -185z m601 160 c91 -48 123 -189 65
-290 -80 -143 -290 -109 -324 52 -39 178 110 314 259 238z m443 15 c77 -17
113 -89 83 -162 -19 -45 -62 -69 -128 -71 l-49 -2 0 -82 c0 -82 0 -83 -25 -83
l-25 0 0 199 0 200 33 4 c57 7 71 7 111 -3z m506 -10 c0 -18 -7 -20 -80 -20
l-80 0 0 -70 0 -70 75 0 c68 0 75 -2 75 -20 0 -18 -7 -20 -75 -20 l-75 0 0
-75 0 -75 85 0 c78 0 85 -2 85 -20 0 -19 -7 -20 -110 -20 l-110 0 0 205 0 205
105 0 c98 0 105 -1 105 -20z m400 -5 c60 -31 64 -123 8 -170 l-31 -26 22 -23
c12 -13 28 -45 35 -72 7 -27 16 -59 20 -71 6 -20 4 -23 -17 -23 -22 0 -26 7
-42 68 -21 85 -36 102 -92 102 l-43 0 0 -85 c0 -84 0 -85 -25 -85 l-25 0 0
199 0 200 33 4 c48 7 126 -2 157 -18z m442 9 c9 -3 15 -11 12 -19 -4 -10 -20
-12 -63 -8 -50 5 -61 3 -80 -16 -26 -26 -27 -62 -2 -85 11 -10 47 -31 81 -47
49 -23 64 -36 76 -65 17 -40 7 -89 -24 -117 -47 -43 -202 -39 -202 5 0 15 4
18 18 13 9 -4 40 -10 67 -12 62 -6 105 21 105 67 0 37 -19 55 -96 90 -53 24
-67 36 -79 65 -41 97 58 165 187 129z"/>
<path d="M7420 5395 l0 -175 208 2 207 3 0 170 0 170 -207 3 -208 2 0 -175z"/>
<path d="M6027 5793 c-2 -5 2 -102 9 -218 7 -115 13 -225 13 -242 l1 -33 195
0 195 0 0 250 0 250 -204 0 c-113 0 -207 -3 -209 -7z"/>
<path d="M3320 4404 l0 -166 65 4 c107 7 155 60 155 173 0 107 -51 155 -165
155 l-55 0 0 -166z"/>
<path d="M5557 4540 c-56 -49 -72 -140 -38 -216 26 -56 64 -84 116 -84 52 0
90 28 116 84 51 112 -13 246 -117 246 -34 0 -51 -7 -77 -30z"/>
<path d="M6070 4485 l0 -85 45 0 c61 0 95 32 95 88 0 54 -31 82 -93 82 l-47 0
0 -85z"/>
<path d="M6930 4490 l0 -80 48 0 c61 0 92 28 92 83 0 54 -27 77 -90 77 l-50 0
0 -80z"/>
</g>
</svg>
