<svg xmlns="http://www.w3.org/2000/svg" viewBox="0 0 106.4 120.2"><title>necessidade-google</title><polygon points="46.4 118.6 41 36.3 6.9 36.3 1.5 118.6 46.4 118.6" style="fill:none;stroke:#231f20;stroke-linecap:round;stroke-linejoin:round;stroke-width:3.03378px"/><line x1="3.4" y1="89" x2="44.4" y2="89" style="fill:none;stroke:#231f20;stroke-linecap:round;stroke-linejoin:round;stroke-width:3.03378px"/><line x1="4.3" y1="75.4" x2="43.5" y2="75.4" style="fill:none;stroke:#231f20;stroke-linecap:round;stroke-linejoin:round;stroke-width:3.03378px"/><rect x="14.7" y="13.1" width="18.4" height="23.18" style="fill:none;stroke:#231f20;stroke-linecap:round;stroke-linejoin:round;stroke-width:3.03378px"/><rect x="10.6" y="1.5" width="26.7" height="11.59" style="fill:none;stroke:#231f20;stroke-linecap:round;stroke-linejoin:round;stroke-width:3.03378px"/><polygon points="104.9 118.6 99.6 36.3 65.4 36.3 60.1 118.6 104.9 118.6" style="fill:none;stroke:#231f20;stroke-linecap:round;stroke-linejoin:round;stroke-width:3.03378px"/><line x1="62" y1="89" x2="103" y2="89" style="fill:none;stroke:#231f20;stroke-linecap:round;stroke-linejoin:round;stroke-width:3.03378px"/><line x1="62.9" y1="75.4" x2="102.1" y2="75.4" style="fill:none;stroke:#231f20;stroke-linecap:round;stroke-linejoin:round;stroke-width:3.03378px"/><rect x="73.3" y="13.1" width="18.4" height="23.18" style="fill:none;stroke:#231f20;stroke-linecap:round;stroke-linejoin:round;stroke-width:3.03378px"/><rect x="69.2" y="1.5" width="26.7" height="11.59" style="fill:none;stroke:#231f20;stroke-linecap:round;stroke-linejoin:round;stroke-width:3.03378px"/><line x1="41.7" y1="47.5" x2="64.7" y2="47.5" style="fill:none;stroke:#231f20;stroke-linecap:round;stroke-linejoin:round;stroke-width:3.03378px"/><line x1="63.9" y1="60.6" x2="42.6" y2="60.6" style="fill:none;stroke:#231f20;stroke-linecap:round;stroke-linejoin:round;stroke-width:3.03378px"/></svg>